<svg xmlns="http://www.w3.org/2000/svg" width="21" height="20" fill="none" viewBox="0 0 21 20"><g fill="#006ffd" clip-path="url(#clip0_59_584)"><path d="M6.695.77c0-.205-.08-.4-.221-.545a.75.75 0 0 0-1.07 0 .78.78 0 0 0-.22.544v1.62c-1.452.119-2.404.408-3.103 1.12S1.096 5.192.979 6.668h20c-.117-1.477-.401-2.445-1.102-3.157-.7-.713-1.652-1.002-3.102-1.121V.769c0-.204-.08-.4-.221-.544a.75.75 0 0 0-1.07 0 .78.78 0 0 0-.221.544v1.552c-.67-.013-1.422-.013-2.268-.013H8.963c-.845 0-1.597 0-2.268.013z"/><path fill-rule="evenodd" d="M.98 9.796c0-.856 0-1.617.012-2.296h19.974c.013.679.013 1.44.013 2.296v2.04c0 3.849 0 5.773-1.172 6.968S16.75 20 12.98 20h-4c-3.77 0-5.657 0-6.828-1.196S.98 15.684.98 11.837zm15 2.04a1 1 0 0 0 .706-.298 1.03 1.03 0 0 0 0-1.443.99.99 0 0 0-1.414 0 1.03 1.03 0 0 0 0 1.443 1 1 0 0 0 .707.299m0 4.082a1 1 0 0 0 .706-.298 1.03 1.03 0 0 0 0-1.444.99.99 0 0 0-1.414 0 1.03 1.03 0 0 0 0 1.444 1 1 0 0 0 .707.298m-4-5.102c0 .271-.106.53-.294.722a.99.99 0 0 1-1.414 0 1.03 1.03 0 0 1 0-1.443.99.99 0 0 1 1.414 0c.188.191.293.45.293.721m0 4.082c0 .27-.106.53-.294.722a.99.99 0 0 1-1.414 0 1.03 1.03 0 0 1 0-1.444.99.99 0 0 1 1.414 0c.188.192.293.451.293.722m-6-3.061a1 1 0 0 0 .706-.3 1.03 1.03 0 0 0 0-1.442.99.99 0 0 0-1.414 0 1.03 1.03 0 0 0 0 1.443 1 1 0 0 0 .707.299m0 4.081a1 1 0 0 0 .706-.298 1.03 1.03 0 0 0 0-1.444.99.99 0 0 0-1.414 0 1.03 1.03 0 0 0 0 1.444 1 1 0 0 0 .707.298" clip-rule="evenodd"/></g><defs><clipPath id="clip0_59_584"><path fill="#fff" d="M.875 0h20v20h-20z"/></clipPath></defs></svg>