<svg width="21" height="20" viewBox="0 0 21 20" fill="none" xmlns="http://www.w3.org/2000/svg">
<mask id="mask0_55_568" style="mask-type:alpha" maskUnits="userSpaceOnUse" x="2" y="0" width="17" height="20">
<path d="M15.3748 4.99988C15.3748 7.76124 13.1364 9.99977 10.375 9.99977C7.61373 9.99977 5.37524 7.76124 5.37524 4.99988C5.37524 2.23852 7.61373 0 10.375 0C13.1364 0 15.3748 2.23852 15.3748 4.99988Z" fill="#006FFD"/>
<path d="M2.04199 16.6667C2.04199 13.9054 4.28048 11.6669 7.0418 11.6669H13.7082C16.4695 11.6669 18.708 13.9054 18.708 16.6667V17.5001C18.708 18.8807 17.5888 20 16.2081 20H4.54189C3.16124 20 2.04199 18.8807 2.04199 17.5001V16.6667Z" fill="#006FFD"/>
</mask>
<g mask="url(#mask0_55_568)">
<rect x="0.375488" y="-0.000976562" width="19.9992" height="19.9995" fill="#C5C6CC"/>
</g>
</svg>
