<svg xmlns="http://www.w3.org/2000/svg" width="21" height="20" fill="none" viewBox="0 0 21 20"><path fill="#c5c6cc" d="M2.73 20a1 1 0 0 1-.75-.32 1.1 1.1 0 0 1-.302-.791v-2.695q0-.444.158-.847.157-.404.447-.708L15.546.667a2.1 2.1 0 0 1 1.5-.667q.421 0 .803.167.383.165.67.5l1.474 1.555q.316.306.474.71a2.3 2.3 0 0 1 0 1.68 2.2 2.2 0 0 1-.474.75l-13.236 14a2 2 0 0 1-.67.471 2 2 0 0 1-.804.167zM17.1 5.306l1.42-1.5-1.5-1.584-1.42 1.5zM12.204 20q1.947 0 3.605-1.028 1.659-1.028 1.658-2.86 0-.89-.42-1.543a5.2 5.2 0 0 0-1.106-1.208 1.3 1.3 0 0 0-.79-.278.9.9 0 0 0-.71.334q-.29.333-.29.82t.369.763q.368.306.605.556a.8.8 0 0 1 .237.555q0 .639-.961 1.153-.96.515-2.197.514a1 1 0 0 0-.75.32 1.1 1.1 0 0 0-.303.79q0 .472.303.793.304.32.75.319M6.94 3.333q0 .39-.46.71T4.36 5.166q-2.104.972-2.92 1.764-.816.791-.816 1.958 0 .721.316 1.278.315.555.816.972a.97.97 0 0 0 .763.264q.42-.041.71-.403t.263-.806a1.06 1.06 0 0 0-.368-.75 1.5 1.5 0 0 1-.29-.277.46.46 0 0 1-.105-.278q0-.333.474-.667.474-.333 2-1.028Q7.52 6.14 8.283 5.278q.763-.86.763-1.945 0-1.527-1.158-2.43Q6.73.002 4.836 0q-1.184 0-2.12.444-.934.445-1.433 1.084-.29.36-.237.805t.395.723a.92.92 0 0 0 .763.25 1.16 1.16 0 0 0 .71-.362q.369-.388.816-.555.448-.167 1.106-.167 1.079 0 1.592.334.514.333.513.777"/></svg>